<?xml version="1.0" encoding="utf-8"?>
<!-- Generator: Adobe Illustrator 15.1.0, SVG Export Plug-In . SVG Version: 6.00 Build 0)  -->
<!DOCTYPE svg PUBLIC "-//W3C//DTD SVG 1.1//EN" "http://www.w3.org/Graphics/SVG/1.1/DTD/svg11.dtd">
<svg version="1.1" fill="#8f605c" id="Layer_1" xmlns="http://www.w3.org/2000/svg" xmlns:xlink="http://www.w3.org/1999/xlink" x="0px" y="0px"
	 width="134.77px" height="135.375px" viewBox="50.102 0 134.77 135.375" enable-background="new 50.102 0 134.77 135.375"
	 xml:space="preserve">
<path d="M179.188,0C182,1,182,1,183.938,2.625C185.486,6.086,184.823,8.337,184,12c-1.855,2.738-1.855,2.738-4.188,5.313
	C173.504,24.679,169.209,31.975,165.75,41c-0.246,0.64-0.492,1.28-0.747,1.94c-3.144,8.61-4.376,17.104-4.315,26.247
	c0.008,1.371,0.008,1.371,0.018,2.771c0.251,14.195,3.429,29.49,10.955,41.745c2.153,3.691,1.816,6.077,1.34,10.297
	c-1.563,2.063-1.563,2.063-4,3c-3.375,0.25-3.375,0.25-7-1c-10.865-9.982-15.507-32.834-16.127-46.885
	c-0.219-8.61-0.336-17.234,0.637-25.801c0.092-0.809,0.184-1.617,0.277-2.45c0.07-0.615,0.141-1.23,0.213-1.864
	c-1.041,1.042-1.041,1.042-2.103,2.105c-16.864,16.886-33.729,33.769-50.599,50.648c-8.158,8.162,33.686-33.674,25.53-25.508
	c-7.105,7.115-14.212,14.229-21.321,21.34c-3.767,3.768-7.532,7.537-11.295,11.307c-3.539,3.546-7.08,7.089-10.623,10.63
	c-1.303,1.304-2.605,2.607-3.906,3.913c-1.771,1.775-3.544,3.547-5.318,5.319c-0.52,0.522-1.039,1.044-1.574,1.583
	c-2.921,2.908-4.518,4.496-8.667,5.037C54,135,54,135,51.563,132.875C49.576,129.22,49.848,127.958,51,124
	c1.705-2.172,3.322-3.977,5.283-5.885c0.556-0.561,1.113-1.121,1.686-1.698c1.865-1.873,3.747-3.728,5.629-5.583
	c1.341-1.34,2.681-2.68,4.021-4.021c3.637-3.639,7.29-7.263,10.946-10.883c3.818-3.787,7.622-7.588,11.427-11.387
	c7.208-7.193,14.428-14.372,21.654-21.547c8.225-8.17-33.565,33.647-25.355,25.463C103.178,71.624,120.082,54.806,137,38
	c-1.255,0.161-2.51,0.322-3.803,0.488C109.547,41.522,82.614,39.131,62,26c-2.5-2.555-2.5-2.555-4-5
	c0.063-3.184,0.49-5.149,2.125-7.875C63.161,11.304,65.642,11.256,69,12c3.013,1.345,5.9,2.863,8.816,4.406
	c18.165,9.094,42.326,11.203,61.703,4.984c11.929-4.766,22.199-10.805,32.273-18.816C174.445,0.59,175.822,0,179.188,0z"/>
</svg>
