<?xml version="1.0" encoding="utf-8"?>
<!-- Generator: Adobe Illustrator 15.1.0, SVG Export Plug-In . SVG Version: 6.00 Build 0)  -->
<!DOCTYPE svg PUBLIC "-//W3C//DTD SVG 1.1//EN" "http://www.w3.org/Graphics/SVG/1.1/DTD/svg11.dtd">
<svg version="1.1" id="Layer_1" xmlns="http://www.w3.org/2000/svg" xmlns:xlink="http://www.w3.org/1999/xlink" x="0px" y="0px"
	 width="321.924px" height="78.54px" viewBox="6.913 19.262 321.924 78.54" enable-background="new 6.913 19.262 321.924 78.54"
	 xml:space="preserve">
<g>
	<defs>
		<rect id="SVGID_1_" x="6.913" y="19.262" width="102.328" height="78.54"/>
	</defs>
	<clipPath id="SVGID_2_">
		<use xlink:href="#SVGID_1_"  overflow="visible"/>
	</clipPath>
	<g clip-path="url(#SVGID_2_)">
		<path fill="#8F605C" d="M57.865,19.262c0.733,0.29,1.086,0.726,1.566,1.343c0.536,0.669,1.07,1.325,1.652,1.956
			c0.952,1.069,1.817,2.204,2.667,3.353c0.091,0.111,0.176,0.23,0.266,0.353c6.058,8.146,10.231,18.223,9.804,28.521
			c-0.01,0.246-0.021,0.496-0.032,0.754c-0.074,1.492-0.256,2.444-0.54,2.855c-0.246,0.22-0.524,0.448-0.829,0.674
			c-4.218,3.278-7.745,7.415-10.38,12.053c-0.07,0.131-0.145,0.262-0.225,0.397c-1.502,2.667-2.624,5.438-3.571,8.345h-0.38
			c-0.037-0.108-0.074-0.21-0.106-0.316C55.481,72.9,52.083,67.26,47.223,62.198c-0.144-0.161-0.293-0.314-0.449-0.476
			c-0.898-0.926-1.849-1.74-2.86-2.539c-0.925-0.766-1.449-1.391-1.571-1.861c-0.011-0.188-0.017-0.373-0.022-0.564
			c-0.01-0.222-0.016-0.439-0.026-0.663c0-0.248-0.005-0.488-0.011-0.738c-0.006-0.262-0.016-0.524-0.027-0.78
			c-0.112-4.03,0.434-8.079,1.551-11.946c0.042-0.162,0.091-0.323,0.139-0.488c2.207-7.48,6.469-14.263,11.568-20.11
			c0.481-0.563,0.957-1.121,1.438-1.689c0.177-0.209,0.353-0.417,0.529-0.629C57.604,19.562,57.732,19.411,57.865,19.262z
			 M12.365,50.747c0.145,0,0.295,0,0.445,0c2.699,0.004,5.34,0.198,8.006,0.621c0.161,0.028,0.327,0.048,0.493,0.072
			c4.372,0.686,8.665,2.129,12.62,4.107c0.15,0.074,0.299,0.151,0.459,0.224c3.625,1.791,6.752,4.057,9.734,6.782
			c0.391,0.355,0.785,0.689,1.192,1.035c2.807,2.47,5.003,5.639,6.847,8.869c0.07,0.108,0.133,0.226,0.203,0.345
			c2.166,3.746,3.417,7.793,4.356,12.003c-0.635,0.273-1.213,0.447-1.902,0.532c-0.182,0.02-0.363,0.048-0.545,0.068
			c-0.193,0.028-0.379,0.048-0.577,0.076c-0.198,0.021-0.391,0.049-0.594,0.075c-1.454,0.175-2.897,0.324-4.356,0.385
			c-0.171,0.01-0.348,0.016-0.524,0.026c-8.006,0.182-16.245-2.446-22.654-7.242c-0.149-0.113-0.293-0.222-0.443-0.333
			c-0.428-0.326-0.851-0.657-1.267-0.998c-0.176-0.139-0.353-0.284-0.534-0.43c-2.791-2.264-5.33-4.831-7.447-7.738
			c-0.161-0.222-0.326-0.439-0.486-0.659c-1.149-1.555-2.17-3.169-3.122-4.853c-0.074-0.127-0.149-0.255-0.225-0.392
			c-1.94-3.403-4.714-8.331-4.714-12.337C9.008,50.785,10.676,50.751,12.365,50.747z M103.121,50.776c0.443,0,0.887,0,1.331-0.006
			c1.454,0,2.881,0.039,4.324,0.218c-0.117,1.22-0.475,2.321-0.865,3.48c-0.064,0.2-0.134,0.401-0.204,0.611
			c-0.615,1.79-1.342,3.512-2.16,5.218c-0.059,0.125-0.118,0.25-0.176,0.377c-1.577,3.357-3.501,6.462-5.821,9.355
			c-0.23,0.282-0.455,0.578-0.673,0.865c-2.181,2.822-4.875,5.375-7.767,7.451c-0.103,0.077-0.204,0.151-0.311,0.225
			c-8.59,6.269-18.87,8.377-29.309,6.784c-0.15-0.026-0.299-0.048-0.455-0.074c-0.149-0.022-0.294-0.049-0.443-0.071
			c-0.343-0.056-0.68-0.133-1.021-0.213c-0.251-0.509-0.139-0.704-0.005-1.248c0.047-0.18,0.091-0.355,0.138-0.537
			c0.048-0.193,0.102-0.385,0.155-0.576c0.053-0.199,0.102-0.397,0.155-0.599c1.107-4.053,2.721-7.98,5.068-11.482
			c0.084-0.123,0.17-0.252,0.256-0.382c1.198-1.771,2.448-3.383,3.923-4.938c0.209-0.248,0.423-0.498,0.631-0.748
			c7.014-8,17.886-12.307,28.245-13.499c0.149-0.018,0.305-0.036,0.455-0.05C100.099,50.769,101.607,50.769,103.121,50.776z
			 M95.476,77.773c3.656,1.676,6.884,4.117,9.835,6.833c0.396,0.361,0.803,0.716,1.209,1.063c0.534,0.472,1.059,0.948,1.566,1.439
			c0.123,0.117,0.246,0.234,0.374,0.357c0.352,0.417,0.518,0.813,0.696,1.324c-9.623,6.539-20.095,10.505-31.865,8.267
			c-1.048-0.231-2.069-0.524-3.091-0.856c-0.144-0.043-0.282-0.085-0.433-0.134c-4.655-1.498-10.953-4.397-13.812-8.606
			c0.219,0.042,0.443,0.088,0.673,0.129c8.472,1.401,17.442,0.504,25.161-3.357c0.144-0.066,0.289-0.139,0.443-0.212
			C89.484,82.43,92.899,80.35,95.476,77.773z M20.437,77.773c0.919,0.684,1.604,1.21,2.046,1.564
			c8.848,7.009,19.362,9.549,30.485,8.549c1-0.084,1.994-0.161,2.994-0.233c-0.652,0.834-1.321,1.498-2.16,2.139
			c-0.116,0.091-0.235,0.18-0.352,0.272c-7.768,5.92-16.828,8.502-26.561,7.355c-7.142-0.972-14.235-4.257-19.939-8.63
			c0.278-0.992,0.915-1.555,1.636-2.254c0.123-0.117,0.246-0.238,0.368-0.359c0.829-0.806,1.662-1.586,2.557-2.324
			c0.101-0.087,0.203-0.172,0.308-0.262C14.525,81.318,17.342,79.458,20.437,77.773z"/>
	</g>
</g>
<g>
	<g transform="translate(164.633813, 187.475568)">
		<g>
			<path fill="#FFFFFF" d="M-19.654-104.074v-16.23l-14.045-33.118h12.402l7.119,24.011h0.298l7.015-24.011H5.171l-13.982,33.118
				v16.23H-19.654z"/>
		</g>
	</g>
</g>
<g>
	<g transform="translate(193.425315, 187.475568)">
		<g>
			<path fill="#FFFFFF" d="M-5.004-103.112c-3.496,0-6.473-0.786-8.937-2.353c-2.47-1.564-4.351-3.881-5.645-6.948
				c-1.299-3.064-1.946-6.843-1.946-11.333c0-4.728,0.684-8.627,2.053-11.696c1.379-3.063,3.313-5.329,5.795-6.798
				c2.489-1.464,5.436-2.202,8.829-2.202c3.55,0,6.553,0.748,9.022,2.246c2.466,1.484,4.347,3.736,5.646,6.754
				c1.294,3.026,1.945,6.875,1.945,11.545c0,4.791-0.695,8.723-2.075,11.785c-1.366,3.066-3.302,5.333-5.792,6.799
				C1.409-103.849-1.557-103.112-5.004-103.112z M-4.769-110.957c0.939,0,1.774-0.238,2.502-0.708
				c0.727-0.47,1.335-1.203,1.837-2.201c0.498-0.994,0.884-2.269,1.155-3.807c0.269-1.551,0.407-3.401,0.407-5.537
				c0-2.292-0.148-4.28-0.449-5.946c-0.301-1.669-0.716-3.02-1.24-4.061c-0.514-1.057-1.165-1.831-1.945-2.331
				c-0.771-0.496-1.625-0.748-2.566-0.748c-0.899,0-1.71,0.232-2.438,0.704c-0.725,0.47-1.341,1.22-1.837,2.246
				c-0.504,1.026-0.89,2.351-1.155,3.976c-0.272,1.613-0.407,3.54-0.407,5.774c0,2.195,0.135,4.093,0.407,5.686
				c0.266,1.597,0.667,2.909,1.195,3.936c0.526,1.015,1.161,1.769,1.905,2.267C-6.646-111.205-5.769-110.957-4.769-110.957z"/>
		</g>
	</g>
</g>
<g>
	<g transform="translate(220.468572, 187.475568)">
		<g>
			<path fill="#FFFFFF" d="M2.864-92.335c-3.579,0-6.492-0.339-8.745-1.004c-2.239-0.674-3.887-1.621-4.939-2.846
				c-1.042-1.228-1.561-2.663-1.561-4.298c0-2.151,0.818-3.897,2.46-5.236c1.651-1.339,3.945-2.208,6.886-2.609v-0.835
				c-2.14,0-3.904-0.322-5.283-0.963c-1.367-0.653-2.053-1.698-2.053-3.142c0-1.355,0.632-2.5,1.903-3.444
				c1.283-0.941,3.192-1.588,5.73-1.943v-0.899c-2.693-0.496-4.82-1.714-6.371-3.655c-1.54-1.953-2.311-4.345-2.311-7.186
				c0-2.595,0.633-4.857,1.903-6.797c1.282-1.954,3.106-3.488,5.474-4.601c2.363-1.121,5.219-1.686,8.553-1.686h16.828v8.146
				L9.985-137.13v0.982c3.233,0.601,5.521,1.601,6.863,2.994c1.351,1.401,2.03,3.067,2.03,5.006c0,1.896-0.549,3.653-1.646,5.278
				c-1.103,1.615-2.731,2.907-4.897,3.892c-2.169,0.972-4.827,1.456-7.974,1.456c-0.642,0-1.38-0.024-2.202-0.065
				c-0.831-0.056-1.642-0.183-2.439-0.387c-0.941,0.504-1.64,0.954-2.095,1.347c-0.443,0.388-0.661,0.763-0.661,1.113
				c0,0.298,0.133,0.528,0.405,0.686c0.284,0.143,0.669,0.25,1.155,0.318c0.495,0.074,1.048,0.109,1.645,0.109h8.469
				c0.994,0,2.25,0.052,3.762,0.148c1.524,0.102,3.021,0.45,4.49,1.049c1.464,0.597,2.7,1.561,3.7,2.887
				c0.992,1.325,1.496,3.184,1.496,5.579c0,2.833-0.765,5.16-2.289,6.971c-1.512,1.822-3.693,3.186-6.542,4.083
				C10.419-92.787,6.953-92.335,2.864-92.335z M3.251-101.38c2.49,0,4.426-0.149,5.793-0.452c1.369-0.298,2.309-0.726,2.822-1.28
				c0.524-0.546,0.793-1.179,0.793-1.925c0-0.795-0.206-1.416-0.602-1.859c-0.401-0.453-0.913-0.78-1.54-0.984
				c-0.613-0.197-1.25-0.318-1.901-0.364c-0.642-0.051-1.186-0.083-1.625-0.083H0.47c-1.684,0.545-2.865,1.142-3.551,1.795
				c-0.673,0.641-1.004,1.391-1.004,2.246c0,0.778,0.311,1.375,0.939,1.774c0.627,0.395,1.482,0.681,2.566,0.854
				C0.518-101.476,1.795-101.38,3.251-101.38z M3.999-123.594c1.538,0,2.724-0.557,3.568-1.67c0.857-1.121,1.282-2.682,1.282-4.681
				c0-1.994-0.425-3.597-1.282-4.811c-0.845-1.224-2.063-1.839-3.655-1.839c-1.54,0-2.748,0.615-3.613,1.839
				c-0.87,1.214-1.304,2.794-1.304,4.746c0,1.285,0.193,2.416,0.578,3.401c0.394,0.97,0.966,1.72,1.708,2.244
				C2.035-123.85,2.938-123.594,3.999-123.594z"/>
		</g>
	</g>
</g>
<g>
	<g transform="translate(247.184036, 187.475568)">
		<g>
			<path fill="#FFFFFF" d="M-0.591-104.074v-39.405H9.863v39.405H-0.591z M4.625-147.287c-2.042,0-3.608-0.417-4.703-1.26
				c-1.102-0.857-1.647-2.081-1.647-3.677c0-1.635,0.546-2.875,1.647-3.722c1.095-0.855,2.661-1.282,4.703-1.282
				c2.095,0,3.678,0.427,4.746,1.282c1.069,0.847,1.604,2.087,1.604,3.722c0,1.597-0.549,2.82-1.647,3.677
				C8.244-147.705,6.678-147.287,4.625-147.287z"/>
		</g>
	</g>
</g>
<g>
	<g transform="translate(259.203261, 187.475568)">
		<g>
			<path fill="#FFFFFF" d="M11.768-104.074l-10.476-39.32H12.58l5.753,30.574h0.599l6.138-30.574h10.774l-10.543,39.32H11.768z"/>
		</g>
	</g>
</g>
<g>
	<g transform="translate(285.099225, 187.475568)">
		<g>
			<path fill="#FFFFFF" d="M21.822-103.112c-1.795,0-3.442-0.373-4.938-1.11c-1.496-0.738-2.712-1.871-3.635-3.399
				c-0.916-1.524-1.369-3.432-1.369-5.732c0-2.276,0.434-4.153,1.305-5.623c0.865-1.48,2.014-2.678,3.441-3.591
				c1.424-0.926,2.958-1.657,4.599-2.204c1.636-0.555,3.257-1.032,4.854-1.432c1.794-0.453,3.191-0.867,4.189-1.239
				c0.994-0.369,1.712-0.841,2.14-1.412c0.428-0.567,0.641-1.331,0.641-2.289c0-0.996-0.193-1.865-0.576-2.609
				c-0.375-0.754-0.909-1.335-1.605-1.754c-0.701-0.427-1.548-0.641-2.544-0.641c-0.939,0-1.855,0.238-2.736,0.706
				c-0.873,0.472-1.572,1.272-2.095,2.396c-0.514,1.129-0.744,2.71-0.686,4.748l-9.727-1.198c0-2.834,0.416-5.202,1.259-7.099
				c0.856-1.895,2.018-3.411,3.485-4.557c1.466-1.153,3.134-1.988,5.005-2.5c1.865-0.524,3.826-0.791,5.879-0.791
				c2.49,0,4.662,0.363,6.501,1.089c1.838,0.718,3.356,1.771,4.555,3.166c1.197,1.401,2.095,3.16,2.693,5.281
				c0.599,2.111,0.897,4.534,0.897,7.272v8.38c0,1.657,0.012,3.345,0.042,5.068c0.028,1.71,0.064,3.416,0.106,5.109
				c0.055,1.698,0.134,3.367,0.236,5.004h-9.28c-0.041-1.737-0.096-3.47-0.149-5.197c-0.043-1.718-0.064-3.532-0.064-5.43h-0.833
				c-0.299,2.353-0.978,4.403-2.03,6.157c-1.042,1.742-2.365,3.079-3.956,4.019C25.826-103.582,23.961-103.112,21.822-103.112z
				 M26.163-111.26c0.796,0,1.582-0.195,2.353-0.597c0.769-0.397,1.464-0.951,2.095-1.667c0.625-0.729,1.144-1.595,1.561-2.611
				c0.428-1.024,0.689-2.165,0.791-3.42v-4.705l1.945-0.448c-0.502,0.642-1.176,1.178-2.03,1.604
				c-0.845,0.427-1.748,0.792-2.716,1.091c-0.974,0.298-1.934,0.614-2.886,0.939c-0.943,0.318-1.809,0.701-2.587,1.157
				c-0.77,0.443-1.391,1.016-1.86,1.71c-0.472,0.699-0.706,1.599-0.706,2.693c0,1.399,0.386,2.458,1.155,3.186
				C24.048-111.612,25.01-111.26,26.163-111.26z"/>
		</g>
	</g>
</g>
</svg>
