<svg xmlns="http://www.w3.org/2000/svg" width="139.939" height="163.074" viewBox="0 0 139.939 163.074"><g transform="translate(-75.893 -58.217)"><path d="M144.329,197.638c-6.872-5.522-6.566-3.354-12.892.369-2.875,1.692-3.673.974-6.816.852-4.522-.177-13.167-.022-16.982,2.8,2.525,3.441,9.527,1.872,13.324,2.226a102.047,102.047,0,0,1,13.964,2.709c3.6.885,6.709,3.087,10.073.451,2.7-2.119,1.74-9.563,5.963-8.9.719,2.921-1.424,5.384-1.261,8.235.161,2.818,2.391,5.637,5.054,2.347,2.3-2.84-.917-5.867.346-8.869,1.62-3.851,7.956-4.1,11.606-4.793,7.981-1.508,19.549-4.849,27.305-.9,3.369,1.714,4.621,4.02.458,4.731-3.3.564-8.97-2.713-12.542-3.058-5.192-.5-16.426-.227-20.78,3.412-3.74,3.124-2.566,10.256,1.288,12.219,3.515,1.79,8.655.573,12.321.709,5.75.212,11.311.438,17-.6,7.077-1.288,18.768-3.051,22.406-10.335,6.785-13.585-18.02-14.89-25.113-14.847-5.02.03-11.647,1.929-16.419,1.3-5.124-.677-.951-2.212-3.741-4.756-1.525-1.391-4.2-.007-5.993.173-4.012.4-7.831-.031-11.831-.2-6.745-.29-13.443-.326-20.188-.486-2.026-.048-5.053-.8-6.9-.244-2.862.863-1.42,1.02-2.927,2.669-.88.963.13,1.84-1.423,2.979-1.443,1.058-5.792.336-7.524.417-9.564.447-26.357,2.211-33.561,8.853-5.421,5,.714,12.573,4.038,17.677,2.262,3.473,3.067,5.179,7.607,5.714,5.707.672,12.093-.156,17.886-.019,10.919.258,21.864.928,32.687-.459,3.922-.5,7.61-2.294,11.529-2.694,4.9-.5,10,1.137,14.861,1.605,3.045.293,26.534.726,15.887-6.288-3.441-2.267-7.244-1.383-10.963-2.571-3.167-1.012-5.5-3.6-8.5-5-2.817-1.307-6.026-2.466-8.963-1.48-3.546,1.19-3.165,4.4-5.615,6.347-3.064,2.439-6.936.171-10.487.312,1.859,1.907,3.918,6.065.447,7.637-2.469-3.245-3.153-5.23-7.188-6.934-3.712-1.567-7.719-2.562-11.407-4.118-4.139-1.746-20.7-12.929-23.5-7.026,3.077,2.39,7.338-.544,10.426-1.613A74.876,74.876,0,0,1,120.4,195.4c6.669-1.04,10.587-2.136,15.22-7.344,1.779-2,2.159-5,3.866-6.955,2.106-2.416,4.557-1.216,6.657-3.138,3.347-3.063-1.109-7.456-2.322-4.964-2.282,4.692,5.429,1.46,6.071,1.165,8.3-3.807,10.054,2.333,16.84,5.882,3.617-2.447-.944-6.612-1.776-9.265-1.093-3.488,1.182-8.4-1.4-10.785-3.706-3.422-16.3-.01-21,.042-3.257.037-15.108-2.353-17.224.053-1.133,1.288-.021,5.559-.276,7.177-.468,2.966-2.066,4.619-3.2,7.2-2.829,6.466,1.926,3.414,4.6-.56,1.172-1.744,2.875-4.639,3.253-6.712.318-1.737-1.193-4.582-.609-6.059,1.843-4.66,9.157-1.924,12.576-4.069,6.44-4.041,6.133-25.145,4.387-31.811-6.364,4.929-2.16,15.872-7.536,21.337-5.431,5.521-21.34,6.8-28.584,6.813-1.336-7.634,10.328-14.008,10.6-21.528a6.893,6.893,0,0,0-4.361,3.411c.718-1.179,1.179-3.934,2.169-4.82,1.717-1.536,4.175-.529,6.049-2.011,3.646-2.885,3.62-10.743,1.85-14.485-4.171.756-8.375.678-11.881,3.583-6.186,5.125-8.781,15.179-11.481,22.346-3.328,8.834-15.109,25.023,2.068,24.183,5.058-.247,9.718-3.032,14.558-4.33,4.728-1.267,9.3-2.282,13.773-4.221,5.3-2.3,14.814-.792,17.664-5.654,1.6-2.728,1.4-24.739-1-24.349-3.321.54-2.507,21.354-2.055,24.665.715,5.246,2.944,4.648,7.585,5.133a111.644,111.644,0,0,1,16.174,3.239c6.261,1.619,26.029,10.02,23.731-2.532-1.521-8.306-8.231-17.915-11.994-25.544-2.383-4.83-5.127-14.5-9.765-17.238-13.878-8.2-10.031,28.21-.666,18.6,1.937,1.549,12.378,14.965,11.648,17.36-.681,2.24-16.317,1.188-19.243.977-1.882-.136-13.525-2.32-8.528-4.5,4.341-1.892,7.7,4.516,10.9-1.29,3.626-6.585-3.191-9.053-5.415-13.81-3.057-6.538,1.745-11.838.6-17.915-1.762-9.365-4.7,6.472-5.279,9.209-1.114,5.285-.817,9.071-6.683,10.733-7.461,2.115-15.614-.343-19.5-7.385-2.342-4.24,1.673-11.414-2.248-14.276a2.85,2.85,0,0,0-.469,1.6c5.635-2.86,14.021-7.645,9.577-15.341,3.991,7.9,18.71,6.852,20.308-.647a28.867,28.867,0,0,1,1.844-6.372,24.618,24.618,0,0,0,2.182-3.822c1.067-2.644-3.243-6.671-4.029-9.367-4.246-14.553-17.793-8.149-23.123,2.142-1.065,2.056-2.061,2.427-3.281,3.919-1.093,1.336-3.119.762-2.752,3.486" fill="none" stroke="#8f605c" stroke-miterlimit="10" stroke-width="1"/><path d="M129.458,86.556c1.092,6.829,1.524,2.655,6.536,6.919,1.139.969-3.932-12.4,1.423-20.718s18.937-8.775,22.58,2.022c2.094-4.944-2.983-16.062-13.378-16.062s-15.846,4.469-16.3,18.16" fill="none" stroke="#8f605c" stroke-linecap="round" stroke-linejoin="round" stroke-width="1"/></g></svg>