<svg xmlns="http://www.w3.org/2000/svg" width="132.506" height="152.905" viewBox="0 0 132.506 152.905"><g transform="translate(-561.795 -62.013)"><path d="M587.248,73.958c.415,15.406,8,29.422,9.843,44.59,1.236,10.193,2.6,19.972,2.593,30.267-.005,9.836.469,19.467,1.243,29.2.222,2.789,2.084,7.493,1.66,10.116-.407,2.527-1.925,3.218-4.54,4.47-2.018.966-5.1,3.032-6.247-.092-.907-2.462,1.9-3.81,3.758-2.1,2.808,2.572-.95,3.857-1.617,5.412-1.476,3.437.235,6.2.375,9.885.127,3.33-1.79,6.58,1.8,8.333,2.076,1.014,6.215-.062,8.528-.179,3.912-.2,7.7.211,11.649.208,2.582,0,10.616,1.014,12.609-1.015,5.6-5.7-10.36-5.8-12.809-7.1-3.495-1.862-12.316-9.047-9.8-13.7,3,1.968,4.564,6.162,7.9,8.158,2.844,1.7,6.416,1.977,9.471,1.708.629,4.841-7.655,12.227,1.3,6.652,2.53-1.575,5.071-1.826,6.41-5.054,1.515-3.653.644-9.327.638-13.248A157.984,157.984,0,0,1,636,157.276c2.514-11.754,8.813-21.413,13.236-32.348,2.533-6.261,5.272-21.3-2.538-25.464-8.634-4.6-17.69,11.48-13.6,18.439,2.877,4.9,9.619.562,10.056-4.161.52-5.613-4.494-5.521-7.378-2.08-3.151,3.76-2.909,10.773-3.355,15.456-.531,5.568-1.394,11.084-2.362,16.6-.825,4.706-3.1,8.852-3.843,13.538-.893,5.63-.593,11.674-.84,17.367-.245,5.641,2.57,15.292-.405,20.226-3.068-3.033-.626-7-4.643-9.5-5.325-3.314-14.531-1.212-20.249-.717-2.534.219-5.074.576-7.532.829-4.124.424-4.354.4-6.229-3.212-3.131-6.032-4.406-13.7-4.457-20.375a185.1,185.1,0,0,0-1.751-24.59c-1.31-8.826-6.689-16.924-10.695-24.7C561.945,98.1,556.83,74.976,572.73,64.737c7.311-4.708,13.012-1.333,17.451,5.168,2.492,3.65,5.587,12.818,3.523,16.89-4.064-1.374-3.1-8.113-3.14-11.6-.049-3.889-.869-6.97,4.136-6.134,5.347.893,10.475,7.253,14.631,10.3,4.523,3.314,9.244,4.481,14.348,6.416,7.613,2.886,16.194,3.347,23.072,8.255a19.785,19.785,0,0,1,6.648,8.337c1.685,3.647,1.62,9.031,5.556,11.149,9.55,5.136,5.2-10.745,11.943-13.376,3.383,3.742-12.31,25.13,1.832,21.492,5.58-1.435,8.349-2.345,11.942-6.956,2.124-2.726,8.119-6.435,8.918-9.813,1.609-6.8-6.407-6.557-10.2-7.667-4.16-1.221-1.965-1.357-3.242-4.59-1.112-2.814-2.393-4.273-5.441-3.245-1.456.491-4.808,4.072-4.183,5.541,1.177,2.767,3.966-.362,5.394-.753,4.132-1.132,12,3.368,14.985,1.165,5.222-3.848-2.649-9.472-5.793-10.989-3.647-1.758-5.443-1.977-8.319-4.663-2.047-1.911-4.084-5.045-7.359-4.371-2.922.6-4.069,3.49-3.055,6.117,1.464,3.793,4.82,1.37,1.352,5.455-1.755,2.068-3.584.707-4.249,4.523-.416,2.392,2.173,4.429-.694,6.127-2.6,1.537-10.359-2.489-12.967-3.854-5.567-2.915-10.625-6.554-16.6-8.942-5.581-2.232-8.51-2.645-11.159,3.31-2.017,4.534-2.27,9.725-3.731,14.453-.891,2.884-4.658,8.209-4.71,10.972-.076,4.119,3.576,3.052,5.651,4.409,2.667,1.744,2.592,5.164,4.864,7.418,2.781,2.759,5.643,1.8,5.4-2.4-.246-4.35-5.75-6.726-9.144-8.2-5.516-2.394-10.749-4.824-15.319-8.883-1.824-1.62-11.192-11.47-9.959-12.353" fill="none" stroke="#ffffff" stroke-miterlimit="10" stroke-width="1"/></g></svg>