<svg id="Layer_1_1_" enable-background="new 0 0 256 256" height="512" viewBox="0 0 256 256" fill="#8f605c" width="512" xmlns="http://www.w3.org/2000/svg"><path d="m102 249.528c0 2.466 2.006 4.472 4.481 4.472 27.263-.128 27.576-.299 28.148-.611l1.088-.593c6.344-3.46 10.694-9.804 11.638-16.97l.277-2.107 32.049-6.27c8.606-1.684 16.946-4.526 24.789-8.447l6.486-3.243c5.578-2.789 9.043-8.396 9.043-14.632 0-3.767-1.313-7.445-3.698-10.359l-2.016-2.463c-2.746-3.357-6.634-5.456-10.948-5.911-8.897-.936-17.877-.624-26.626.922l-15.777 2.295c.011-.165.026-.329.016-.495l-.844-14.349c-.123-2.112-1.877-3.766-3.993-3.766h-.287l-.122-2.073 5.615-14.954c.315-.713.679-1.408 1.081-2.065l5.115-8.372c3.583-5.862 4.145-13.149 1.503-19.492-.857-2.057-2.024-3.961-3.469-5.66l-15.155-17.826c-.414-2.403-1.323-4.604-2.659-6.411-1.695-2.293-3.95-3.999-6.521-5.008l-.617-1.029c-.001-.001-.002-.003-.003-.004l.352-12.131c.619-.093 1.234-.214 1.844-.38 14.623-3.991 20.71-28.048 16.001-45.305-4.611-16.904-20.213-27.424-34.762-23.451-7.11 1.94-12.896 6.988-16.29 14.214-.305.65-.58 1.314-.84 1.984-.438-.058-.875-.095-1.311-.095-6.413 0-11.63 5.938-11.63 13.236s5.217 13.236 11.63 13.236c.647 0 1.292-.065 1.931-.189 1.427 3.587 3.354 7.103 5.634 10.353l-.951 10.672c-3.224-.377-6.536.179-9.561 1.692-5.629 2.815-10.205 7.214-13.187 12.597-9.387 14.228-15.808 28.48-19.091 42.433l-5.311 22.57c-.034.149-.052.303-.052.457v12.764c0 1.524.847 2.895 2.211 3.578l14.134 7.067-1.779 9.076c-.105.46-.18.926-.271 1.389l-16.062 7.123c-2.426 1.076-5.003 1.622-7.659 1.622h-5.241c-.188 0-.375.026-.557.079l-24.333 7.048c-.128.037-.253.087-.372.149l-5.024 2.632c-1.739.911-3.031 2.44-3.64 4.306l-2.379 7.298c-.666 2.042-.421 4.273.671 6.123 1.092 1.849 2.929 3.14 5.04 3.542.463.088.931.132 1.398.132.345 0 .691-.024 1.034-.072l9.688-1.352c2.831-.395 5.478-1.583 7.654-3.438l3.319-2.827c1.548-1.32 3.43-2.183 5.441-2.496l7.642-1.188c2.812-.437 5.43-1.659 7.572-3.533l1.949-1.706 15.033-.329.945 3.467c2.792 10.237 10.122 20.324 19.203 26.969-1.48.38-2.781 1.329-3.565 2.702-.956 1.672-1.012 3.699-.151 5.422.817 1.634 2.348 2.772 4.134 3.089l2.908 1.2c-1.212.828-1.943 2.193-1.943 3.692zm109.19-58.692 2.016 2.464c1.802 2.201 2.794 4.979 2.794 7.825 0 4.711-2.618 8.947-6.832 11.054l-6.486 3.243c-7.52 3.76-15.517 6.485-23.768 8.1l-30.731 6.012 4.328-32.889 28.841-1.47c4.264-.115 8.525.355 12.664 1.39l5.498 1.375.971-3.881-5.498-1.375c-.341-.085-.684-.16-1.026-.238l5.37-6.377c1.197.079 2.394.175 3.589.301 3.259.344 6.196 1.93 8.27 4.466zm-57.362 1.737-.785.04.028-.213c.25.084.502.14.757.173zm23.52-5.309c5.59-.987 11.249-1.44 16.911-1.381l-4.834 5.74c-2.714-.366-5.461-.52-8.227-.444l-25.906 1.32c.837-.205 1.607-.673 2.175-1.381l.87-1.087zm-20.389-1.913-2.615 3.268-5.27-1.977.823-15.642h6.217zm8.366-63.769c2.151 5.164 1.694 11.096-1.223 15.868l-5.116 8.372c-.505.826-.959 1.699-1.352 2.595-.015.033-.027.066-.04.099l-2.469 6.575-2.13-36.208c-.002-.037-.005-.074-.009-.111l-1.734-15.03 11.25 13.233c1.177 1.382 2.126 2.932 2.823 4.607zm-23.586-53.847c-8.126 2.216-18.07-4.628-24.885-13.989.437-2.91 2.594-13.571 11.317-19.953 8.701-6.367 17.37-14.698 20.821-18.114 2.64 3.259 4.724 7.202 5.942 11.663 4.119 15.094-1.268 37.138-13.195 40.393zm-36.151-26.32c-4.208 0-7.63-4.143-7.63-9.236s3.423-9.236 7.63-9.236c.025 0 .051.006.076.006-1.391 5.651-1.3 11.771.332 17.749.062.228.134.457.201.686-.202.02-.406.031-.609.031zm5.771-22.66c2.888-6.147 7.761-10.429 13.722-12.056 1.734-.473 3.487-.7 5.23-.7 5.76 0 11.407 2.494 15.953 6.747-3.321 3.283-11.997 11.628-20.456 17.818-7.385 5.404-10.629 13.267-12.026 18.409-1.717-3.038-3.076-6.207-3.928-9.329-1.968-7.213-1.434-14.632 1.505-20.889zm5.403 41.406c5.828 6.593 13.092 11.326 20.182 11.931l-.22 7.569c-.571-.464-1.166-.898-1.793-1.284l-15.776-9.708c-.969-.596-1.981-1.086-3.02-1.473zm-5.569 10.028c2.039.15 4.049.769 5.865 1.887l8.481 5.219c-3.147 1.833-5.357 5.339-7.367 8.558-1.986 3.179-4.04 6.466-6.666 7.66-2.52 1.146-4.905 1.072-6.902-.214-2.223-1.431-3.604-4.19-3.604-7.199 0-4.653 6.866-12.55 10.193-15.911zm-6.762 1.332c.066-.033.136-.054.202-.086-3.453 4.075-7.633 9.976-7.633 14.665 0 4.355 2.083 8.402 5.438 10.563 1.716 1.104 3.626 1.66 5.619 1.66 1.666 0 3.39-.388 5.104-1.167 3.724-1.693 6.103-5.5 8.403-9.183 3.002-4.806 5.117-7.793 8.414-7.945l2.857 1.758c1.034.636 1.961 1.434 2.779 2.331-3.121.033-6.145 1.034-8.692 2.943-4.992 3.744-7.786 9.7-7.475 15.932l.648 12.958c.609 12.186 2.521 24.339 5.683 36.123l3.687 13.745-4.032.164-27.218-13.607c2.543-2.913 6.758-7.848 7.573-9.479 1.502-3.005-.985-14.794-5.125-21.004-3.785-5.681-11.663-17.497-11.663-25.892 0-2.755.843-6.279 2.506-10.473.433-1.094.961-2.137 1.532-3.154.839-1.265 1.696-2.53 2.584-3.795 2.378-2.908 5.357-5.331 8.809-7.057zm25.303 124.897c-3.372-.408-10.498-1.537-15.839-4.208-8.841-4.42-15.089-11.087-18.788-15.921l.999.499c.146.073.301.128.46.163l26.732 5.94 7.44 3.985zm-31.543-70.873c3.126 5.717 4.451 14.174 4.02 15.56-.503 1.007-4.137 5.374-7.693 9.419l-5-2.5zm-29.191 20.687 5.257-22.344c2.171-9.226 5.772-18.606 10.748-28.037 0 .048-.005.101-.005.149 0 8.374 6.098 18.593 10.518 25.362l-9.733 25.226c-.743 1.933.093 4.088 1.944 5.014l36.376 18.188c.279.138.585.21.895.21.027 0 .054 0 .082-.001l5.446-.222 1.444 5.383-.781 7.422-6.246-3.345c-.161-.086-.333-.149-.51-.189l-26.76-5.947-28.675-14.337zm-4.377 53.102c-.469.01-.92.185-1.273.494l-2.496 2.185c-1.571 1.374-3.491 2.27-5.552 2.591l-7.643 1.188c-2.743.427-5.309 1.604-7.421 3.403l-3.318 2.827c-1.596 1.359-3.537 2.231-5.613 2.521l-9.689 1.352c-.375.052-.755.043-1.131-.028-.996-.189-1.828-.774-2.343-1.647-.516-.873-.627-1.884-.313-2.848l2.379-7.298c.283-.868.884-1.579 1.693-2.003l4.847-2.539 23.867-6.914h4.958c3.218 0 6.341-.662 9.281-1.966l13.751-6.098c-.451 4.826-.163 9.713.858 14.455zm20.651 6.069-1.356-4.975c-1.869-6.851-2.025-14.132-.438-21.116l1.578-8.048 2.789 1.395c1.645 2.923 9.486 15.743 24.26 23.13 5.951 2.975 13.596 4.182 17.209 4.612l-1.304 12.39c-.004.043-.007.086-.009.129l-.872 21.807c-.015.376-.222.61-.344.716-.123.105-.39.276-.758.239l-16.943-1.753c-10.928-5.413-20.694-17.091-23.812-28.526zm17.067 35.446c-.165-.068-.338-.114-.515-.136-.59-.074-1.081-.421-1.346-.953-.266-.531-.249-1.132.046-1.649.343-.6 1.009-.939 1.696-.871l23.394 2.42c1.366.144 2.749-.294 3.788-1.195 1.039-.9 1.667-2.205 1.722-3.579l.87-21.743 3.993-37.935c.025-.244.006-.491-.058-.728l-6.29-23.446c-3.089-11.511-4.957-23.383-5.552-35.287l-.648-12.958c-.245-4.902 1.953-9.587 5.879-12.532 2.318-1.739 5.171-2.468 8.045-2.045 2.868.419 5.408 1.951 7.153 4.311 1.095 1.481 1.801 3.362 2.04 5.44l2.447 21.209 2.816 47.828h-1.923c-2.129 0-3.883 1.665-3.994 3.79l-.823 15.641c-.093 1.75.948 3.339 2.59 3.956l1.554.583-5.834 44.333c-.777 5.904-4.362 11.13-9.589 13.981l-.743.405c-2.483.146-17.351.267-26.586.31-.26 0-.472-.212-.472-.472 0-.087.023-.17.066-.242l6.029-.288c.936-.044 1.715-.732 1.875-1.655s-.342-1.833-1.208-2.191z"/></svg>