<svg id="Layer_1_1_" enable-background="new 0 0 256 256" height="512" viewBox="0 0 256 256" fill="#8f605c" width="512" xmlns="http://www.w3.org/2000/svg"><path d="m199.984 152.444c2.031-2.373 3.85-4.952 5.403-7.666l11.609-20.29c2.271-3.968 3.193-8.466 2.669-13.008l-.212-1.842c-1.275-11.059-10.999-19.325-22.106-18.819-2.953.134-5.796.865-8.495 2.197l-8.553 4.506c-2.284-5.443-5.362-10.549-9.149-15.121-3.345-4.037-8.038-6.71-13.217-7.527l-6.692-1.057c2.707-6.219 4.279-13.118 4.279-19.544 0-10.105-4.064-19.123-10.388-24.984.204-.85.402-1.782.402-2.756 0-9.667-7.866-17.533-17.534-17.533s-17.534 7.866-17.534 17.534c0 1.055.222 1.935.442 2.72-6.347 5.86-10.428 14.894-10.428 25.02 0 6.395 1.557 13.26 4.241 19.456l-7.249 1.145c-5.179.818-9.872 3.491-13.216 7.527-3.745 4.52-6.799 9.562-9.077 14.95l-8.674-4.36c-2.651-1.308-5.493-2.039-8.446-2.173-11.144-.502-20.831 7.761-22.106 18.819l-.213 1.843c-.524 4.542.398 9.041 2.669 13.008l11.61 20.29c1.553 2.714 3.371 5.293 5.404 7.666l3.658 4.271 2.162 64.324-6.822 5.685c-1.437 1.197-2.101 3.08-1.732 4.914.368 1.833 1.707 3.314 3.495 3.864l6.943 2.137c.492.151.997.227 1.492.227.168 0 .335-.008.499-.026l16.326-1.402c1.788-.188 3.312-1.272 4.075-2.9.601-1.28.643-2.706.148-3.984l4.229-.469c1.631-.182 2.965-1.318 3.32-2.827.241-1.02.043-2.096-.542-2.954-.584-.857-1.508-1.433-2.534-1.579l-10.736-1.459 3.194-36.091 13.223 15.439 4.89 9.78c.134.267.325.501.562.684l12.249 9.527c1.259.979 2.795 1.492 4.352 1.492.701 0 1.407-.104 2.094-.317 2.21-.685 3.95-2.409 4.653-4.614l3.083-9.658 3.083 9.658c.703 2.205 2.443 3.929 4.653 4.614.687.213 1.393.317 2.094.317 1.557 0 3.093-.513 4.352-1.492l12.249-9.527c.236-.183.428-.417.562-.684l4.89-9.78 13.154-15.358 3.257 35.936-10.73 1.533c-1.026.146-1.95.722-2.534 1.579-.585.857-.783 1.934-.542 2.954.355 1.509 1.689 2.645 3.321 2.827l4.228.469c-.494 1.279-.452 2.705.149 3.985.764 1.627 2.287 2.711 4.114 2.903l16.249 1.395c.179.019.357.028.535.028.506 0 1.006-.075 1.493-.225l6.944-2.137c1.787-.55 3.126-2.03 3.494-3.864s-.296-3.717-1.732-4.914l-6.854-5.778 2.193-64.229zm-9.314-55.865c2.153-1.062 4.461-1.656 6.859-1.764 9.016-.429 16.915 6.302 17.951 15.282l.213 1.843c.425 3.688-.324 7.34-2.169 10.563l-1.489 2.602c-8.637-1.331-17.375-1.266-25.997.229l-5.799 1.006 12.258-16.129-3.186-2.42-4.578 6.023-.673-3.547c-.543-3.055-1.327-6.055-2.329-8.977zm-22.6-11.625c6.188 7.47 10.356 16.465 12.058 26.036l1.349 7.111-15.933 20.965-4.764-13.261-3.983-10.727c-1.572-4.231-2.23-8.662-1.96-13.135l1.795-23.223.679.107c4.214.664 8.037 2.84 10.759 6.127zm-14.098 82.029-25.683-3.752c-.189-.028-.383-.027-.572-.001l-26.282 3.759-4.615-14.909c-.988-3.194-2.377-6.22-4.139-9.037l4.42-12.302c5.729 5.859 21.11 20.259 33.899 20.259 12.319 0 23.633-11.762 28.337-17.385l3.388 9.428c-1.762 2.817-3.152 5.843-4.14 9.036zm-40.972-80.387c4.311 4.522 9.457 7.404 15 7.404s10.689-2.882 15-7.404v7.94c0 6.995-4.756 12.999-11.564 14.602-2.247.529-4.622.528-6.871 0-6.809-1.603-11.565-7.608-11.565-14.602zm15 3.404c-10.762 0-20.491-14.936-22.93-29.159 2.53-12.309 12.116-21.211 22.93-21.211 11.145 0 20.575 8.41 23.05 20.488-2.226 14.436-12.106 29.882-23.05 29.882zm0-77c7.438 0 13.49 6.032 13.531 13.461-3.999-2.634-8.614-4.146-13.531-4.146s-9.532 1.512-13.531 4.146c.041-7.429 6.093-13.461 13.531-13.461zm0 13.315c11.539 0 21.155 9.93 23.139 22.976-4.966-8.373-13.499-13.661-23.139-13.661-9.713 0-18.335 5.663-23.27 14.589 1.657-13.501 11.459-23.904 23.27-23.904zm-19 55.275v12.945c0 8.86 6.023 16.465 14.648 18.495 1.423.335 2.888.502 4.352.502s2.929-.167 4.352-.502c8.625-2.03 14.648-9.635 14.648-18.495v-12.945c.862-1.276 1.672-2.615 2.421-4.01l3.248.513-1.822 23.574c-.307 5.066.434 10.046 2.2 14.803l3.977 10.707.727 2.024c-2.807 3.6-14.648 17.799-26.751 17.799-12.303 0-28.609-16.47-32.38-20.463l3.74-10.068c1.768-4.757 2.507-9.738 2.201-14.767l-1.005-23.74 2.978-.47c.762 1.427 1.586 2.796 2.466 4.098zm-21.664 3.364c2.722-3.286 6.543-5.462 10.759-6.128l1.484-.234.987 23.317c.273 4.506-.385 8.936-1.957 13.168l-3.991 10.747-4.757 13.241-15.653-20.597 1.074-7.501c1.697-9.55 5.866-18.545 12.054-26.013zm-47.624 26.985.213-1.843c1.007-8.719 8.469-15.3 17.167-15.3.261 0 .523.006.785.018 2.397.108 4.705.702 6.845 1.758l9.017 4.533c-1.038 2.996-1.846 6.08-2.406 9.227l-.525 3.662-4.715-6.205-3.186 2.42 11.631 15.305-8.252.5c-6.717.407-13.394 2.191-19.446 5.154l-4.959-8.666c-1.845-3.222-2.594-6.875-2.169-10.563zm39.132 112.213 8.409 1.202-5.016.557c-.718.083-1.353.543-1.656 1.199-.293.632-.229 1.46.157 2.04l1.08 1.621c.309.462.159.901.08 1.069-.078.167-.321.563-.835.618l-16.325 1.402c-.145.014-.296.001-.436-.042l-6.943-2.137c-.561-.172-.711-.637-.749-.828-.039-.192-.08-.678.371-1.053l6.822-5.685c.975-.812 1.522-2.053 1.469-3.303l-2.022-59.227 15.709 18.342-3.544 40.062c-.106 2.079 1.368 3.869 3.429 4.163zm45.413-20.002-3.447 10.801c-.311.974-1.05 1.706-2.026 2.009-.977.304-1.999.116-2.807-.512l-11.891-9.249-4.797-9.594c-.073-.146-.164-.282-.271-.406l-40.558-47.357c-1.869-2.182-3.541-4.554-4.969-7.05l-4.663-8.148c5.519-2.664 11.592-4.266 17.7-4.636l10.922-.661 10.048 13.221c2.453 3.226 4.304 6.825 5.502 10.695l11.09 35.829c.083.271.224.52.41.732l7.5 8.5c.317.359.752.593 1.227.658l8.513 1.174c.904.125 1.702.639 2.188 1.411.487.771.606 1.713.329 2.583zm3.837-4.716c-.145.23-.274.467-.391.709-.117-.242-.246-.479-.391-.71-1.117-1.773-2.949-2.954-5.025-3.241l-7.777-1.073-6.726-7.622-5.151-16.641 25.365-3.627 24.778 3.62-5.153 16.648-6.726 7.622-7.777 1.073c-2.077.287-3.909 1.469-5.026 3.242zm28.293-2.235c-.106.124-.197.26-.271.406l-4.797 9.594-11.891 9.249c-.808.627-1.83.814-2.807.512-.977-.303-1.716-1.035-2.026-2.009l-3.447-10.802c-.277-.869-.157-1.811.329-2.583s1.284-1.287 2.188-1.411l8.513-1.174c.475-.065.909-.299 1.227-.658l7.5-8.5c.187-.212.327-.461.41-.732l11.09-35.829c1.198-3.87 3.049-7.469 5.502-10.695l8.779-11.551 10.036-1.741c7.688-1.333 15.47-1.474 23.181-.444l-7.988 13.961c-1.43 2.497-3.102 4.869-4.97 7.051zm35.216 26.914 6.821 5.686c.451.375.41.862.371 1.053-.038.192-.188.656-.748.828l-6.944 2.137c-.142.043-.285.058-.474.039l-16.247-1.395c-.554-.059-.796-.455-.875-.622-.078-.167-.228-.607.08-1.069l1.094-1.641c.398-.612.449-1.372.139-2.032-.297-.628-.971-1.11-1.661-1.187l-5.001-.557 8.403-1.201c2.062-.294 3.536-2.084 3.425-4.243l-3.614-39.895 15.784-18.429-2.021 59.206c-.056 1.27.493 2.512 1.468 3.322z"/></svg>