<?xml version="1.0" encoding="utf-8"?>
<!-- Generator: Adobe Illustrator 15.1.0, SVG Export Plug-In . SVG Version: 6.00 Build 0)  -->
<!DOCTYPE svg PUBLIC "-//W3C//DTD SVG 1.1//EN" "http://www.w3.org/Graphics/SVG/1.1/DTD/svg11.dtd">
<svg version="1.1" id="Layer_1" xmlns="http://www.w3.org/2000/svg" xmlns:xlink="http://www.w3.org/1999/xlink" x="0px" y="0px"
	 width="155.924px" height="38.041px" viewBox="22.491 -41.212 155.924 38.041"
	 enable-background="new 22.491 -41.212 155.924 38.041" xml:space="preserve">
<g>
	<defs>
		<rect id="SVGID_1_" x="22.491" y="-41.212" width="49.563" height="38.041"/>
	</defs>
	<clipPath id="SVGID_2_">
		<use xlink:href="#SVGID_1_"  overflow="visible"/>
	</clipPath>
	<g clip-path="url(#SVGID_2_)">
		<path fill="#8F605C" d="M47.17-41.212c0.355,0.14,0.526,0.352,0.759,0.65c0.259,0.324,0.518,0.642,0.8,0.947
			c0.461,0.518,0.88,1.067,1.292,1.624c0.044,0.054,0.085,0.111,0.129,0.17c2.934,3.946,4.956,8.827,4.749,13.815
			c-0.005,0.12-0.01,0.241-0.016,0.366c-0.036,0.722-0.124,1.183-0.261,1.382c-0.119,0.107-0.254,0.217-0.401,0.326
			c-2.043,1.588-3.751,3.592-5.028,5.839c-0.034,0.063-0.07,0.126-0.109,0.192c-0.728,1.292-1.271,2.633-1.729,4.042H47.17
			c-0.018-0.053-0.036-0.102-0.051-0.153c-1.104-3.221-2.75-5.952-5.104-8.404c-0.07-0.078-0.142-0.152-0.217-0.23
			c-0.435-0.448-0.896-0.843-1.385-1.23c-0.448-0.37-0.702-0.673-0.761-0.901c-0.005-0.09-0.008-0.181-0.011-0.273
			c-0.005-0.107-0.008-0.213-0.013-0.322c0-0.12-0.002-0.236-0.005-0.357c-0.003-0.127-0.008-0.254-0.013-0.378
			c-0.054-1.953,0.21-3.913,0.751-5.787c0.021-0.078,0.044-0.156,0.067-0.236c1.069-3.623,3.133-6.908,5.603-9.74
			c0.233-0.272,0.463-0.543,0.696-0.819c0.085-0.101,0.171-0.202,0.256-0.305C47.044-41.067,47.106-41.14,47.17-41.212z
			 M25.132-25.963c0.07,0,0.143,0,0.215,0c1.307,0.002,2.586,0.096,3.878,0.301c0.078,0.013,0.158,0.022,0.239,0.035
			c2.118,0.332,4.197,1.03,6.112,1.989c0.073,0.036,0.145,0.073,0.223,0.109c1.756,0.867,3.271,1.965,4.715,3.285
			c0.189,0.171,0.38,0.334,0.578,0.5c1.359,1.196,2.423,2.731,3.316,4.295c0.034,0.054,0.064,0.11,0.098,0.167
			c1.049,1.814,1.655,3.775,2.11,5.813c-0.308,0.134-0.587,0.217-0.921,0.258c-0.088,0.01-0.176,0.023-0.264,0.034
			c-0.093,0.013-0.184,0.023-0.279,0.036c-0.096,0.011-0.189,0.023-0.288,0.037c-0.704,0.085-1.403,0.157-2.11,0.187
			c-0.083,0.005-0.168,0.008-0.254,0.013c-3.878,0.088-7.868-1.185-10.973-3.508c-0.072-0.055-0.142-0.107-0.214-0.162
			c-0.208-0.157-0.412-0.318-0.614-0.483c-0.085-0.068-0.171-0.138-0.259-0.208c-1.352-1.096-2.582-2.339-3.607-3.748
			c-0.078-0.106-0.158-0.212-0.235-0.319c-0.557-0.753-1.051-1.535-1.512-2.35c-0.036-0.062-0.072-0.124-0.109-0.189
			c-0.94-1.649-2.283-4.036-2.283-5.976C23.506-25.944,24.314-25.96,25.132-25.963z M69.09-25.95c0.215,0,0.43,0,0.645-0.002
			c0.704,0,1.396,0.019,2.094,0.105c-0.057,0.59-0.23,1.124-0.419,1.686c-0.031,0.097-0.065,0.194-0.099,0.296
			c-0.298,0.868-0.65,1.701-1.046,2.527c-0.029,0.062-0.057,0.121-0.085,0.183c-0.764,1.626-1.696,3.13-2.819,4.531
			c-0.111,0.137-0.22,0.28-0.326,0.419c-1.056,1.367-2.361,2.603-3.762,3.609c-0.05,0.037-0.099,0.073-0.15,0.108
			c-4.161,3.036-9.14,4.058-14.196,3.286c-0.073-0.013-0.145-0.023-0.22-0.036c-0.072-0.011-0.143-0.023-0.215-0.034
			c-0.166-0.028-0.329-0.064-0.495-0.103c-0.122-0.246-0.067-0.341-0.002-0.605c0.023-0.086,0.044-0.172,0.067-0.26
			c0.023-0.094,0.049-0.187,0.075-0.279c0.026-0.097,0.049-0.192,0.075-0.291c0.536-1.962,1.318-3.865,2.455-5.561
			c0.041-0.06,0.083-0.122,0.124-0.184c0.58-0.859,1.186-1.639,1.9-2.392c0.101-0.12,0.205-0.241,0.306-0.363
			c3.397-3.875,8.663-5.96,13.681-6.538c0.072-0.009,0.147-0.018,0.22-0.025C67.626-25.952,68.357-25.952,69.09-25.95z
			 M65.387-12.873c1.771,0.811,3.334,1.993,4.764,3.309c0.192,0.175,0.389,0.346,0.585,0.515c0.259,0.228,0.513,0.459,0.759,0.697
			c0.06,0.057,0.119,0.114,0.181,0.173c0.17,0.203,0.251,0.394,0.337,0.642C67.352-4.37,62.28-2.449,56.579-3.533
			c-0.508-0.112-1.002-0.254-1.497-0.415c-0.07-0.02-0.137-0.041-0.209-0.064c-2.255-0.725-5.305-2.13-6.69-4.168
			c0.106,0.02,0.215,0.042,0.326,0.062c4.104,0.679,8.448,0.244,12.187-1.626c0.07-0.033,0.14-0.067,0.215-0.103
			C62.485-10.617,64.139-11.625,65.387-12.873z M29.042-12.873c0.445,0.331,0.777,0.585,0.991,0.757
			c4.286,3.396,9.378,4.626,14.766,4.142c0.484-0.041,0.966-0.078,1.45-0.114c-0.316,0.404-0.64,0.726-1.046,1.036
			c-0.056,0.043-0.114,0.087-0.17,0.132c-3.762,2.868-8.15,4.118-12.865,3.563c-3.459-0.471-6.895-2.062-9.658-4.179
			c0.135-0.481,0.443-0.753,0.792-1.092c0.06-0.057,0.119-0.115,0.178-0.173c0.401-0.392,0.805-0.769,1.238-1.126
			c0.049-0.042,0.098-0.083,0.149-0.127C26.178-11.156,27.543-12.057,29.042-12.873z"/>
	</g>
</g>
<g>
	<g transform="translate(164.633813, 187.475568)">
		<g>
			<path fill="#383537" d="M-75.27-197.623v-7.86l-6.803-16.041h6.007l3.448,11.629h0.145l3.397-11.629h5.83l-6.772,16.041v7.86
				H-75.27z"/>
		</g>
	</g>
</g>
<g>
	<g transform="translate(193.425315, 187.475568)">
		<g>
			<path fill="#383537" d="M-83.02-197.156c-1.693,0-3.135-0.381-4.328-1.14c-1.196-0.758-2.107-1.88-2.734-3.365
				c-0.629-1.484-0.942-3.314-0.942-5.489c0-2.291,0.331-4.178,0.994-5.665c0.668-1.484,1.604-2.582,2.807-3.293
				c1.206-0.709,2.633-1.066,4.276-1.066c1.72,0,3.174,0.362,4.37,1.088c1.194,0.719,2.105,1.81,2.734,3.272
				c0.627,1.465,0.942,3.33,0.942,5.592c0,2.32-0.337,4.224-1.005,5.708c-0.662,1.485-1.6,2.583-2.806,3.293
				C-79.914-197.514-81.35-197.156-83.02-197.156z M-82.906-200.957c0.455,0,0.859-0.115,1.212-0.342
				c0.352-0.228,0.646-0.583,0.89-1.066c0.241-0.482,0.428-1.098,0.56-1.844c0.13-0.751,0.197-1.647,0.197-2.682
				c0-1.111-0.072-2.073-0.218-2.88s-0.347-1.462-0.601-1.967c-0.249-0.511-0.564-0.886-0.942-1.129
				c-0.373-0.24-0.787-0.362-1.243-0.362c-0.436,0-0.828,0.113-1.181,0.341c-0.351,0.227-0.649,0.59-0.89,1.087
				c-0.244,0.497-0.431,1.139-0.56,1.926c-0.132,0.782-0.197,1.714-0.197,2.796c0,1.064,0.065,1.983,0.197,2.755
				c0.129,0.773,0.323,1.409,0.579,1.906c0.255,0.491,0.563,0.856,0.923,1.097C-83.815-201.076-83.39-200.957-82.906-200.957z"/>
		</g>
	</g>
</g>
<g>
	<g transform="translate(220.468572, 187.475568)">
		<g>
			<path fill="#383537" d="M-93.154-191.937c-1.733,0-3.145-0.163-4.235-0.486c-1.085-0.326-1.883-0.785-2.393-1.377
				c-0.505-0.595-0.756-1.29-0.756-2.082c0-1.042,0.396-1.887,1.191-2.537c0.8-0.648,1.911-1.069,3.335-1.263v-0.404
				c-1.036,0-1.891-0.156-2.559-0.466c-0.662-0.316-0.994-0.823-0.994-1.522c0-0.655,0.306-1.211,0.922-1.668
				c0.621-0.456,1.546-0.769,2.775-0.941v-0.435c-1.305-0.241-2.335-0.831-3.086-1.771c-0.746-0.946-1.119-2.105-1.119-3.48
				c0-1.256,0.307-2.353,0.922-3.292c0.621-0.946,1.505-1.688,2.651-2.228c1.145-0.544,2.527-0.817,4.143-0.817h8.15v3.945
				l-5.499-0.87v0.476c1.566,0.291,2.674,0.775,3.324,1.45c0.654,0.678,0.983,1.486,0.983,2.424c0,0.918-0.266,1.77-0.797,2.557
				c-0.534,0.783-1.323,1.409-2.372,1.886c-1.051,0.471-2.338,0.704-3.862,0.704c-0.311,0-0.668-0.011-1.066-0.031
				c-0.402-0.027-0.795-0.089-1.182-0.187c-0.456,0.244-0.794,0.461-1.015,0.652c-0.215,0.187-0.32,0.368-0.32,0.539
				c0,0.145,0.064,0.256,0.196,0.331c0.138,0.07,0.324,0.122,0.56,0.155c0.24,0.036,0.508,0.052,0.797,0.052h4.102
				c0.481,0,1.09,0.026,1.822,0.073c0.738,0.049,1.463,0.218,2.175,0.507c0.709,0.29,1.308,0.756,1.792,1.398
				c0.48,0.642,0.725,1.542,0.725,2.703c0,1.372-0.37,2.499-1.108,3.375c-0.732,0.883-1.789,1.543-3.169,1.978
				C-89.495-192.155-91.174-191.937-93.154-191.937z M-92.967-196.318c1.206,0,2.144-0.072,2.806-0.218
				c0.663-0.145,1.118-0.352,1.367-0.621c0.254-0.265,0.384-0.572,0.384-0.933c0-0.385-0.1-0.686-0.291-0.901
				c-0.194-0.219-0.442-0.377-0.746-0.476c-0.297-0.095-0.605-0.155-0.921-0.177c-0.311-0.025-0.574-0.04-0.787-0.04h-3.158
				c-0.815,0.264-1.388,0.553-1.72,0.87c-0.326,0.311-0.486,0.673-0.486,1.087c0,0.377,0.15,0.666,0.455,0.859
				c0.304,0.191,0.718,0.331,1.243,0.415C-94.29-196.365-93.672-196.318-92.967-196.318z M-92.605-207.078
				c0.745,0,1.319-0.269,1.729-0.808c0.415-0.544,0.621-1.3,0.621-2.268c0-0.966-0.206-1.743-0.621-2.33
				c-0.409-0.593-0.999-0.891-1.771-0.891c-0.746,0-1.331,0.298-1.75,0.891c-0.422,0.587-0.632,1.354-0.632,2.299
				c0,0.622,0.094,1.17,0.28,1.647c0.19,0.47,0.468,0.833,0.827,1.087C-93.556-207.201-93.118-207.078-92.605-207.078z"/>
		</g>
	</g>
</g>
<g>
	<g transform="translate(247.184036, 187.475568)">
		<g>
			<path fill="#383537" d="M-108.603-197.623v-19.086h5.063v19.086H-108.603z M-106.077-218.553c-0.989,0-1.748-0.202-2.278-0.61
				c-0.533-0.416-0.798-1.008-0.798-1.782c0-0.792,0.265-1.393,0.798-1.802c0.53-0.415,1.289-0.621,2.278-0.621
				c1.015,0,1.781,0.207,2.299,0.621c0.518,0.409,0.776,1.01,0.776,1.802c0,0.774-0.266,1.367-0.798,1.782
				C-104.324-218.754-105.083-218.553-106.077-218.553z"/>
		</g>
	</g>
</g>
<g>
	<g transform="translate(259.203261, 187.475568)">
		<g>
			<path fill="#383537" d="M-108.815-197.623l-5.074-19.045h5.468l2.786,14.81h0.29l2.973-14.81h5.219l-5.106,19.045H-108.815z"/>
		</g>
	</g>
</g>
<g>
	<g transform="translate(285.099225, 187.475568)">
		<g>
			<path fill="#383537" d="M-117.299-197.156c-0.869,0-1.667-0.181-2.392-0.539s-1.313-0.906-1.761-1.646
				c-0.443-0.738-0.663-1.663-0.663-2.776c0-1.103,0.21-2.012,0.632-2.723c0.419-0.718,0.976-1.297,1.667-1.74
				c0.689-0.449,1.433-0.803,2.228-1.067c0.792-0.269,1.577-0.5,2.351-0.694c0.869-0.219,1.546-0.419,2.029-0.6
				c0.481-0.178,0.829-0.407,1.036-0.684c0.207-0.275,0.311-0.645,0.311-1.108c0-0.482-0.094-0.903-0.279-1.263
				c-0.182-0.366-0.44-0.647-0.777-0.85c-0.34-0.208-0.75-0.311-1.232-0.311c-0.455,0-0.898,0.115-1.325,0.342
				c-0.423,0.228-0.762,0.616-1.015,1.16c-0.249,0.546-0.36,1.312-0.332,2.299l-4.711-0.58c0-1.373,0.201-2.52,0.609-3.438
				c0.415-0.917,0.978-1.652,1.688-2.207c0.71-0.559,1.518-0.963,2.424-1.212c0.903-0.253,1.854-0.382,2.848-0.382
				c1.206,0,2.258,0.176,3.148,0.528c0.891,0.347,1.626,0.856,2.206,1.533c0.58,0.679,1.015,1.53,1.305,2.558
				c0.29,1.023,0.435,2.196,0.435,3.522v4.059c0,0.803,0.006,1.62,0.021,2.455c0.014,0.828,0.031,1.655,0.052,2.475
				c0.026,0.823,0.064,1.63,0.114,2.423h-4.495c-0.02-0.841-0.046-1.68-0.072-2.517c-0.021-0.833-0.031-1.711-0.031-2.63h-0.403
				c-0.145,1.139-0.474,2.133-0.983,2.982c-0.505,0.844-1.146,1.491-1.916,1.947C-115.359-197.384-116.263-197.156-117.299-197.156z
				 M-115.196-201.102c0.386,0,0.767-0.095,1.14-0.29c0.372-0.192,0.709-0.461,1.015-0.808c0.303-0.353,0.554-0.772,0.756-1.264
				c0.207-0.497,0.334-1.049,0.383-1.656v-2.279l0.942-0.217c-0.243,0.311-0.569,0.57-0.983,0.776
				c-0.409,0.207-0.847,0.384-1.315,0.528c-0.472,0.145-0.937,0.298-1.397,0.455c-0.457,0.154-0.876,0.34-1.253,0.56
				c-0.373,0.215-0.674,0.492-0.901,0.829c-0.229,0.339-0.342,0.774-0.342,1.305c0,0.678,0.187,1.19,0.56,1.542
				C-116.221-201.273-115.755-201.102-115.196-201.102z"/>
		</g>
	</g>
</g>
</svg>
